<?xml version="1.0" encoding="utf-8"?>
<!-- Generator: Adobe Illustrator 16.0.0, SVG Export Plug-In . SVG Version: 6.00 Build 0)  -->
<!DOCTYPE svg PUBLIC "-//W3C//DTD SVG 1.1//EN" "http://www.w3.org/Graphics/SVG/1.1/DTD/svg11.dtd">
<svg version="1.1" xmlns="http://www.w3.org/2000/svg" xmlns:xlink="http://www.w3.org/1999/xlink" x="0px" y="0px" width="500px"
	 height="250px" viewBox="0 125 500 250" enable-background="new 0 125 500 250" xml:space="preserve">
<g id="Layer_1">
	<g id="Layer_1_1_">
		<g>
			<g transform="translate(82.271178, 216.106675)">
				<g>
					<path fill="#FFFFFF" d="M-78.247,102.313c1.699-5.275,4.15-9.295,7.354-12.07c3.212-2.793,6.718-4.447,10.521-4.965
						c3.785-0.514,7.532-0.188,11.232,0.99c4.097,1.328,7.401,3.445,9.901,6.361c2.521,2.918,4.126,6.262,4.809,10.023
						c0.685,3.748,0.42,7.494-0.774,11.234l-4.406,13.686l-18.465-5.928l-1.613,5.061l-5.183-1.678l1.614-5.059l-18.712-6.02
						L-78.247,102.313z M-41.071,113.237c1.009-3.117,1.288-6.113,0.838-8.969c-0.435-2.871-1.599-5.377-3.507-7.51
						c-1.923-2.127-4.5-3.709-7.728-4.748c-3.328-1.07-6.407-1.273-9.247-0.59c-2.856,0.666-5.276,2.01-7.263,4.035
						c-2.001,2.008-3.451,4.396-4.346,7.168l-2.388,7.385l13.28,4.25l1.77-5.49l5.183,1.676l-1.769,5.492l12.971,4.158
						L-41.071,113.237z"/>
				</g>
			</g>
		</g>
		<g>
			<g transform="translate(89.279867, 193.682751)">
				<g>
					<path fill="#FFFFFF" d="M-51.942,97.364c-3.492-2.113-6.191-4.943-8.1-8.504c-1.923-3.555-2.863-7.354-2.824-11.391
						c0.022-4.049,1.087-7.834,3.196-11.355c2.11-3.477,4.958-6.16,8.533-8.068c3.562-1.924,7.371-2.863,11.42-2.825
						c4.034,0.023,7.798,1.086,11.296,3.196c3.515,2.109,6.236,4.949,8.162,8.502c1.924,3.539,2.854,7.35,2.793,11.422
						c-0.063,4.057-1.148,7.82-3.259,11.295c-2.109,3.523-4.934,6.254-8.472,8.191c-3.537,1.947-7.309,2.904-11.327,2.857
						C-44.555,100.62-48.357,99.52-51.942,97.364z M-48.683,92.118c2.606,1.574,5.399,2.406,8.378,2.482
						c2.979,0.063,5.772-0.604,8.379-2.018c2.623-1.404,4.726-3.412,6.3-6.021c1.566-2.605,2.366-5.377,2.39-8.314
						c0.015-2.934-0.707-5.695-2.172-8.287c-1.475-2.605-3.529-4.701-6.175-6.299c-2.63-1.59-5.446-2.43-8.473-2.514
						c-3.019-0.08-5.834,0.574-8.44,1.955c-2.621,1.389-4.726,3.381-6.298,5.988c-1.568,2.607-2.344,5.398-2.328,8.377
						c0,2.98,0.745,5.773,2.233,8.381C-53.399,88.44-51.327,90.528-48.683,92.118z M-59.823,59.688l-7.138,1.521l2.048,6.889
						l-2.764,4.594l-3.754-14.182l0.03-0.031l14.337-3.413L-59.823,59.688z M-82.725,67.54l9.371,0.496l-1.862,3.104l-10.799,1.895
						L-82.725,67.54z"/>
				</g>
			</g>
		</g>
		<g>
			<g transform="translate(110.36462, 163.175771)">
				<g>
					<path fill="#FFFFFF" d="M-15.975,35.007c-1.776,0.396-3.521,0.985-5.244,1.769c-1.716,0.792-3.174,1.707-4.375,2.762
						c-1.814,1.599-2.901,3.274-3.258,5.027c-0.35,1.739,0.108,3.321,1.364,4.748c1.227,1.389,2.849,1.979,4.874,1.769
						c2.009-0.225,4.553-0.915,7.634-2.079c2.271-0.908,4.321-1.521,6.145-1.832c1.815-0.31,3.678-0.17,5.585,0.404
						c1.924,0.581,3.756,1.862,5.493,3.849c1.567,1.784,2.544,3.801,2.917,6.051c0.372,2.234,0.095,4.492-0.838,6.765
						c-0.915,2.281-2.474,4.398-4.685,6.362c-2.071,1.799-4.36,3.219-6.858,4.25c-2.507,1.017-4.927,1.646-7.262,1.894l-1.118-5.338
						c1.878-0.125,3.887-0.59,6.021-1.396c2.125-0.822,3.894-1.847,5.307-3.072c1.776-1.567,2.924-3.397,3.445-5.492
						c0.533-2.086,0.007-4.042-1.583-5.865c-1.352-1.528-2.979-2.25-4.904-2.173c-1.925,0.063-4.276,0.59-7.045,1.583
						c-2.481,0.931-4.64,1.606-6.484,2.018c-1.839,0.419-3.724,0.426-5.647,0.03c-1.939-0.411-3.693-1.504-5.245-3.289
						c-2.313-2.623-3.268-5.555-2.855-8.782c0.419-3.227,2.041-6.175,4.872-8.844c3.624-3.166,7.759-5.198,12.414-6.113
						L-15.975,35.007z"/>
				</g>
			</g>
		</g>
		<g>
			<g transform="translate(124.532671, 151.169997)">
				<g>
					<path fill="#FFFFFF" d="M-14.356,26.117L10.284,63.17L5.32,66.49l-24.641-37.053L-14.356,26.117z"/>
				</g>
			</g>
		</g>
		<g>
			<g transform="translate(141.960154, 140.335952)">
				<g>
					<path fill="#FFFFFF" d="M52.916,43.207c-1.057,1.365-2.482,2.793-4.283,4.283c-1.801,1.49-3.926,2.661-6.362,3.506
						c-4.282,1.537-8.402,1.925-12.351,1.18c-3.933-0.76-7.347-2.438-10.239-5.027c-2.896-2.583-5.027-5.811-6.394-9.682
						c-1.467-4.159-1.878-8.201-1.241-12.134c0.62-3.926,2.188-7.386,4.687-10.365c2.481-2.979,5.709-5.167,9.682-6.579
						c2.358-0.823,4.671-1.288,6.952-1.396c2.271-0.125,4.39,0.031,6.361,0.465l-0.373,6.083c-3.996-1.032-7.619-0.978-10.862,0.155
						c-2.714,0.954-4.965,2.56-6.765,4.81c-1.8,2.257-2.964,4.857-3.477,7.79c-0.496,2.939-0.231,5.888,0.808,8.843
						c1.054,3.026,2.646,5.54,4.778,7.541c2.126,1.986,4.602,3.251,7.417,3.786c2.81,0.543,5.75,0.271,8.814-0.807
						c3.761-1.319,6.656-3.546,8.688-6.673L52.916,43.207z"/>
				</g>
			</g>
		</g>
		<g>
			<g transform="translate(162.220045, 133.042103)">
				<g>
					<path fill="#FFFFFF" d="M78.479,46.907l-5.896,0.776l-2.45-19.364l-23.15,2.917L49.433,50.6l-5.958,0.745L37.888,7.186
						l5.958-0.745l2.42,19.116l23.15-2.917l-2.42-19.117l5.896-0.776L78.479,46.907z"/>
				</g>
			</g>
		</g>
		<g>
			<g transform="translate(186.620909, 130.577995)">
				<g>
					<path fill="#FFFFFF" d="M75.138,5.687l-1.553,44.469l-5.988-0.217l1.553-44.47L75.138,5.687z M74.115,2.646l-3.693-0.157
						l5.367-8.067l6.424,0.217L74.115,2.646z"/>
				</g>
			</g>
		</g>
		<g>
			<g transform="translate(196.453534, 130.251985)">
				<g>
					<path fill="#FFFFFF" d="M124.122,14.892l-9.279,45.059l-0.188-0.03L89.364,20.82l-6.268,31.094l-5.928-1.242l9.246-44.935
						l0.311,0.093l25.197,39.411l6.361-31.528L124.122,14.892z"/>
				</g>
			</g>
		</g>
		<g>
			<g transform="translate(221.753225, 135.545143)">
				<g>
					<path fill="#FFFFFF" d="M133.646,72.184l-5.4-2.514l8.223-17.688l-21.164-9.836l-8.223,17.688l-5.432-2.513l18.775-40.343
						l5.43,2.514l-8.129,17.471l21.16,9.837l8.133-17.472l5.398,2.513L133.646,72.184z"/>
				</g>
			</g>
		</g>
		<g>
			<g transform="translate(252.451569, 151.707608)">
				<g>
					<path fill="#FFFFFF" d="M156.345,99.263l-4.316-4.127l13.438-14.15l-16.943-16.044l-13.438,14.15l-4.344-4.127L161.37,42.69
						l4.344,4.127l-13.25,13.964l16.943,16.044l13.25-13.965l4.314,4.127L156.345,99.263z"/>
				</g>
			</g>
		</g>
		<g>
			<g transform="translate(269.808057, 169.034589)">
				<g>
					<path fill="#FFFFFF" d="M186.15,70.513l-35.408,26.968l-3.631-4.748l35.406-26.967L186.15,70.513z"/>
				</g>
			</g>
		</g>
		<g>
			<g transform="translate(276.123687, 176.742269)">
				<g>
					<path fill="#FFFFFF" d="M205.536,104.49l-4.998,2.764l-11.17-20.047l-11.854,6.607l9.961,17.875l-4.967,2.764l-9.961-17.875
						l-12.01,6.703l11.576,20.822l-5.061,2.793l-14.49-26.066l38.883-21.629L205.536,104.49z M152.284,113.242
						c0.783-0.436,1.615-0.496,2.482-0.188c0.885,0.313,1.551,0.855,1.986,1.646c0.434,0.783,0.543,1.621,0.34,2.514
						c-0.209,0.906-0.705,1.582-1.49,2.018c-0.789,0.449-1.611,0.529-2.48,0.217c-0.869-0.293-1.52-0.828-1.953-1.611
						c-0.438-0.791-0.561-1.639-0.373-2.545C150.995,114.375,151.493,113.691,152.284,113.242z M204.387,94.252l2.172-6.984
						l-6.951-1.613l-2.605-4.686l14.119,3.785l0.031,0.063l-4.158,14.119L204.387,94.252z"/>
				</g>
			</g>
		</g>
		<g>
			<g transform="translate(286.113112, 194.457005)">
				<g>
					<path fill="#FFFFFF" d="M177.898,119.227c-1.859,0.576-3.404,1.555-4.625,2.918c-1.223,1.381-2.031,2.986-2.42,4.811
						c-0.395,1.838-0.293,3.693,0.313,5.555c0.621,1.963,1.598,3.602,2.947,4.904c1.365,1.314,2.955,2.188,4.779,2.605
						c1.814,0.41,3.66,0.326,5.523-0.246l27.4-8.691l1.77,5.586l-27.559,8.719c-3.023,0.973-5.918,1.119-8.688,0.439
						c-2.777-0.672-5.184-2.014-7.23-4.035c-2.049-2.035-3.539-4.529-4.469-7.51c-0.932-2.941-1.146-5.828-0.652-8.658
						c0.498-2.816,1.686-5.291,3.57-7.42c1.898-2.131,4.359-3.682,7.385-4.652l27.559-8.721l1.801,5.711L177.898,119.227z"/>
				</g>
			</g>
		</g>
		<g>
			<g transform="translate(139.143408, 202.874987)">
				<g>
					<path fill="#FFFFFF" d="M56.159,129.297c-2.234,0-4.804-0.449-7.697-1.334c-2.901-0.893-6.571-2.195-11.016-3.912
						c-0.436-0.186-2.018-0.791-4.747-1.797c-4.393,2.605-8.179,3.91-11.358,3.91c-2.221,0-4.027-0.553-5.433-1.648
						c-1.388-1.074-2.078-2.471-2.078-4.188c0-3.352,2.669-5.027,8.006-5.027c2.606,0,6.059,0.42,10.364,1.242
						c4.012-3.43,7.976-7.881,11.887-13.346c3.909-5.475,7.114-11.217,9.619-17.221c2.521-5.998,3.787-11.514,3.787-16.541
						c0-4.32-0.947-7.586-2.824-9.807c-1.885-2.234-4.375-3.352-7.479-3.352c-2.729,0-5.073,0.83-7.013,2.482
						c-1.948,1.66-3.396,3.785-4.345,6.393c-0.954,2.607-1.427,5.307-1.427,8.1c0,2.73,0.598,5.494,1.799,8.287l-1.799-0.188
						c-2.096-0.186-3.841-1.002-5.245-2.451c-1.39-1.467-2.08-3.701-2.08-6.703c0-3.43,0.899-6.674,2.7-9.713
						c1.814-3.057,4.345-5.51,7.572-7.354c3.243-1.84,6.873-2.764,10.894-2.764c5.522,0,9.789,1.754,12.814,5.244
						c3.02,3.5,4.531,8.008,4.531,13.531c0,5.027-1.265,10.449-3.787,16.26c-2.505,5.818-5.826,11.391-9.961,16.727
						c-4.12,5.338-8.533,9.924-13.25,13.75c9.472,2.094,16.021,3.133,19.645,3.133c1.528,0,2.839-0.201,3.939-0.619
						c1.117-0.414,2.762-1.188,4.935-2.328c-1.017,3.924-2.405,6.779-4.157,8.564C61.217,128.404,58.952,129.297,56.159,129.297z
						 M21.154,122.254c1.527,0,3.476-0.676,5.833-2.02c-2.358-0.744-4.367-1.117-6.02-1.117c-1.018,0-1.754,0.156-2.204,0.465
						c-0.435,0.313-0.651,0.67-0.651,1.057c0.063,0.434,0.389,0.807,0.993,1.117C19.703,122.082,20.386,122.254,21.154,122.254z"/>
				</g>
			</g>
		</g>
		<g>
			<g transform="translate(170.295359, 202.874987)">
				<g>
					<path fill="#FFFFFF" d="M77.225,122.904c-2.406,0-4.275-0.604-5.617-1.799c-1.328-1.195-1.987-2.793-1.987-4.779
						c0-0.807,0.133-1.746,0.403-2.822c0.288-1.094,0.598-2.184,0.932-3.26c0.885-2.916,1.336-5.072,1.336-6.486
						c0-1.256-0.326-2.189-0.964-2.793c-0.642-0.619-1.442-0.93-2.388-0.93c-3.375,0-6.782,2.125-10.211,6.359
						c-3.437,4.225-7.122,9.576-11.048,16.045c-2.73,0-4.793-0.926-6.205-2.764l0.867-2.389c3.741-9.076,5.616-15.811,5.616-20.201
						c0.512-0.574,1.25-1.104,2.204-1.584c0.947-0.475,1.87-0.713,2.764-0.713c1.068,0,1.892,0.264,2.451,0.773
						c0.574,0.498,0.868,1.197,0.868,2.08c0,1.725-0.543,4.553-1.613,8.506c2.854-3.826,5.818-6.938,8.907-9.344
						c3.079-2.42,6.121-3.631,9.125-3.631c2.543,0,4.506,0.885,5.895,2.639c1.404,1.736,2.111,3.818,2.111,6.238
						c0,1.389-0.182,2.723-0.529,4.004c-0.355,1.262-0.885,2.691-1.582,4.281c-1.078,2.668-1.613,4.67-1.613,5.988
						c0,0.977,0.215,1.691,0.652,2.141c0.451,0.438,1,0.652,1.643,0.652c2.088,0,4.354-1.443,6.795-4.344
						c2.461-2.896,4.674-6.309,6.645-10.242l1.613,1.336c-2.281,5.273-4.803,9.432-7.57,12.475
						C83.944,121.383,80.778,122.904,77.225,122.904z"/>
				</g>
			</g>
		</g>
		<g>
			<g transform="translate(195.399315, 202.874987)">
				<g>
					<path fill="#FFFFFF" d="M76.44,123.867c-2.096,0-3.967-0.738-5.617-2.203c-1.652-1.441-2.48-3.57-2.48-6.363
						c0-3.551,1.363-7.67,4.094-12.348c2.732-4.672,6.193-8.658,10.396-11.949c4.199-3.305,8.387-4.965,12.568-4.965
						c3.117,0,4.688,1.018,4.688,3.041c0,1.016-0.389,1.752-1.148,2.203c-0.52-0.697-1.639-1.055-3.354-1.055
						c-3.227,0-6.313,1.42-9.246,4.25c-2.918,2.816-5.291,6.137-7.105,9.963c-1.801,3.809-2.699,6.98-2.699,9.527
						c0,1.264,0.248,2.248,0.744,2.945c0.514,0.709,1.279,1.057,2.295,1.057c1.777,0,3.855-1.031,6.238-3.104
						c2.398-2.063,4.85-5.006,7.354-8.813c2.5-3.826,4.748-8.27,6.736-13.346c4.939-12.725,9.129-22.623,12.566-29.699
						c3.428-7.09,6.424-10.643,8.967-10.643c0.697,0,1.32,0.27,1.861,0.807c0.537,0.541,0.809,1.227,0.809,2.049
						c0,1.1-0.498,2.762-1.49,4.996c-0.977,2.219-2.639,5.701-4.996,10.457c-4.639,9.418-8.316,17.643-11.047,24.672
						c-2.73,7.012-4.098,13.373-4.098,19.086c0,1.535,0.133,2.564,0.404,3.102c0.287,0.543,0.783,0.809,1.49,0.809
						c2.172,0,4.654-1.273,7.447-3.816c2.793-2.547,5.227-5.977,7.322-10.305l1.832,1.521c-2.111,5.213-5.014,9.479-8.689,12.785
						c-3.686,3.307-7.338,4.965-10.955,4.965c-2.482,0-4.266-0.77-5.338-2.297c-1.076-1.527-1.613-3.523-1.613-5.99
						c0-1.465,0.25-3.537,0.744-6.205c-3.102,4.516-6.314,8.123-9.617,10.832C82.188,122.516,79.17,123.867,76.44,123.867z"/>
				</g>
			</g>
		</g>
	</g>
	<g id="Layer_2">
	</g>
</g>
<g id="Layer_2_1_">
</g>
</svg>
