<svg xmlns="http://www.w3.org/2000/svg" xmlns:xlink="http://www.w3.org/1999/xlink" width="500" zoomAndPan="magnify" viewBox="0 0 375 374.999991" height="500" preserveAspectRatio="xMidYMid meet" version="1.0"><defs><g/></defs><rect x="-37.5" width="450" fill="rgb(100%, 100%, 100%)" y="-37.499999" height="449.999989" fill-opacity="1"/><rect x="-37.5" width="450" fill="rgb(100%, 100%, 100%)" y="-37.499999" height="449.999989" fill-opacity="1"/><rect x="-37.5" width="450" fill="rgb(100%, 100%, 100%)" y="-37.499999" height="449.999989" fill-opacity="1"/><rect x="-37.5" width="450" fill="rgb(100%, 100%, 100%)" y="-37.499999" height="449.999989" fill-opacity="1"/><g fill="rgb(0%, 0%, 0%)" fill-opacity="1"><g transform="translate(82.271178, 216.106675)"><g><path d="M -18.40625 -15.984375 C -17.550781 -18.640625 -16.316406 -20.664062 -14.703125 -22.0625 C -13.085938 -23.46875 -11.320312 -24.300781 -9.40625 -24.5625 C -7.5 -24.820312 -5.613281 -24.65625 -3.75 -24.0625 C -1.6875 -23.394531 -0.0234375 -22.328125 1.234375 -20.859375 C 2.503906 -19.390625 3.3125 -17.707031 3.65625 -15.8125 C 4 -13.925781 3.867188 -12.039062 3.265625 -10.15625 L 1.046875 -3.265625 L -8.25 -6.25 L -9.0625 -3.703125 L -11.671875 -4.546875 L -10.859375 -7.09375 L -20.28125 -10.125 Z M 0.3125 -10.484375 C 0.820312 -12.054688 0.960938 -13.5625 0.734375 -15 C 0.515625 -16.445312 -0.0703125 -17.707031 -1.03125 -18.78125 C -2 -19.851562 -3.296875 -20.648438 -4.921875 -21.171875 C -6.597656 -21.710938 -8.148438 -21.8125 -9.578125 -21.46875 C -11.015625 -21.132812 -12.234375 -20.457031 -13.234375 -19.4375 C -14.242188 -18.425781 -14.972656 -17.222656 -15.421875 -15.828125 L -16.625 -12.109375 L -9.9375 -9.96875 L -9.046875 -12.734375 L -6.4375 -11.890625 L -7.328125 -9.125 L -0.796875 -7.03125 Z M 0.3125 -10.484375 "/></g></g></g><g fill="rgb(0%, 0%, 0%)" fill-opacity="1"><g transform="translate(89.279867, 193.682751)"><g><path d="M -8.640625 -7.34375 C -10.398438 -8.40625 -11.757812 -9.832031 -12.71875 -11.625 C -13.6875 -13.414062 -14.160156 -15.328125 -14.140625 -17.359375 C -14.128906 -19.398438 -13.59375 -21.304688 -12.53125 -23.078125 C -11.46875 -24.828125 -10.035156 -26.179688 -8.234375 -27.140625 C -6.441406 -28.109375 -4.523438 -28.582031 -2.484375 -28.5625 C -0.453125 -28.550781 1.441406 -28.015625 3.203125 -26.953125 C 4.972656 -25.890625 6.34375 -24.460938 7.3125 -22.671875 C 8.28125 -20.890625 8.75 -18.972656 8.71875 -16.921875 C 8.6875 -14.878906 8.140625 -12.984375 7.078125 -11.234375 C 6.015625 -9.460938 4.59375 -8.085938 2.8125 -7.109375 C 1.03125 -6.128906 -0.867188 -5.648438 -2.890625 -5.671875 C -4.921875 -5.703125 -6.835938 -6.257812 -8.640625 -7.34375 Z M -7 -9.984375 C -5.6875 -9.191406 -4.28125 -8.773438 -2.78125 -8.734375 C -1.28125 -8.703125 0.125 -9.039062 1.4375 -9.75 C 2.757812 -10.457031 3.816406 -11.46875 4.609375 -12.78125 C 5.398438 -14.09375 5.800781 -15.488281 5.8125 -16.96875 C 5.820312 -18.445312 5.457031 -19.835938 4.71875 -21.140625 C 3.976562 -22.453125 2.941406 -23.507812 1.609375 -24.3125 C 0.285156 -25.113281 -1.132812 -25.535156 -2.65625 -25.578125 C -4.175781 -25.617188 -5.59375 -25.289062 -6.90625 -24.59375 C -8.226562 -23.894531 -9.285156 -22.890625 -10.078125 -21.578125 C -10.867188 -20.265625 -11.257812 -18.859375 -11.25 -17.359375 C -11.25 -15.859375 -10.875 -14.453125 -10.125 -13.140625 C -9.375 -11.835938 -8.332031 -10.785156 -7 -9.984375 Z M -12.609375 -26.3125 L -16.203125 -25.546875 L -15.171875 -22.078125 L -16.5625 -19.765625 L -18.453125 -26.90625 L -18.4375 -26.921875 L -11.21875 -28.640625 Z M -24.140625 -22.359375 L -19.421875 -22.109375 L -20.359375 -20.546875 L -25.796875 -19.59375 Z M -24.140625 -22.359375 "/></g></g></g><g fill="rgb(0%, 0%, 0%)" fill-opacity="1"><g transform="translate(110.36462, 163.175771)"><g><path d="M -1 -23.59375 C -1.894531 -23.394531 -2.773438 -23.097656 -3.640625 -22.703125 C -4.503906 -22.304688 -5.238281 -21.84375 -5.84375 -21.3125 C -6.757812 -20.507812 -7.304688 -19.664062 -7.484375 -18.78125 C -7.660156 -17.90625 -7.429688 -17.109375 -6.796875 -16.390625 C -6.179688 -15.691406 -5.363281 -15.394531 -4.34375 -15.5 C -3.332031 -15.613281 -2.050781 -15.960938 -0.5 -16.546875 C 0.644531 -17.003906 1.675781 -17.3125 2.59375 -17.46875 C 3.507812 -17.625 4.445312 -17.554688 5.40625 -17.265625 C 6.375 -16.972656 7.296875 -16.328125 8.171875 -15.328125 C 8.960938 -14.429688 9.453125 -13.414062 9.640625 -12.28125 C 9.828125 -11.15625 9.6875 -10.019531 9.21875 -8.875 C 8.757812 -7.726562 7.972656 -6.660156 6.859375 -5.671875 C 5.816406 -4.765625 4.664062 -4.050781 3.40625 -3.53125 C 2.144531 -3.019531 0.925781 -2.703125 -0.25 -2.578125 L -0.8125 -5.265625 C 0.132812 -5.328125 1.144531 -5.5625 2.21875 -5.96875 C 3.289062 -6.382812 4.179688 -6.898438 4.890625 -7.515625 C 5.785156 -8.304688 6.363281 -9.226562 6.625 -10.28125 C 6.894531 -11.332031 6.628906 -12.316406 5.828125 -13.234375 C 5.148438 -14.003906 4.328125 -14.367188 3.359375 -14.328125 C 2.390625 -14.296875 1.207031 -14.03125 -0.1875 -13.53125 C -1.4375 -13.0625 -2.523438 -12.722656 -3.453125 -12.515625 C -4.378906 -12.304688 -5.328125 -12.300781 -6.296875 -12.5 C -7.273438 -12.707031 -8.15625 -13.257812 -8.9375 -14.15625 C -10.101562 -15.476562 -10.582031 -16.953125 -10.375 -18.578125 C -10.164062 -20.203125 -9.347656 -21.6875 -7.921875 -23.03125 C -6.097656 -24.625 -4.015625 -25.648438 -1.671875 -26.109375 Z M -1 -23.59375 "/></g></g></g><g fill="rgb(0%, 0%, 0%)" fill-opacity="1"><g transform="translate(124.532671, 151.169997)"><g><path d="M -7.21875 -22.109375 L 5.1875 -3.453125 L 2.6875 -1.78125 L -9.71875 -20.4375 Z M -7.21875 -22.109375 "/></g></g></g><g fill="rgb(0%, 0%, 0%)" fill-opacity="1"><g transform="translate(141.960154, 140.335952)"><g><path d="M 18 -8.125 C 17.46875 -7.4375 16.75 -6.71875 15.84375 -5.96875 C 14.9375 -5.21875 13.867188 -4.628906 12.640625 -4.203125 C 10.484375 -3.429688 8.410156 -3.234375 6.421875 -3.609375 C 4.441406 -3.992188 2.722656 -4.835938 1.265625 -6.140625 C -0.191406 -7.441406 -1.265625 -9.066406 -1.953125 -11.015625 C -2.691406 -13.109375 -2.898438 -15.144531 -2.578125 -17.125 C -2.265625 -19.101562 -1.476562 -20.84375 -0.21875 -22.34375 C 1.03125 -23.84375 2.65625 -24.945312 4.65625 -25.65625 C 5.84375 -26.070312 7.007812 -26.304688 8.15625 -26.359375 C 9.300781 -26.421875 10.367188 -26.34375 11.359375 -26.125 L 11.171875 -23.0625 C 9.160156 -23.582031 7.335938 -23.554688 5.703125 -22.984375 C 4.335938 -22.503906 3.203125 -21.695312 2.296875 -20.5625 C 1.390625 -19.425781 0.804688 -18.117188 0.546875 -16.640625 C 0.296875 -15.160156 0.429688 -13.675781 0.953125 -12.1875 C 1.484375 -10.664062 2.285156 -9.398438 3.359375 -8.390625 C 4.429688 -7.390625 5.675781 -6.753906 7.09375 -6.484375 C 8.507812 -6.210938 9.988281 -6.347656 11.53125 -6.890625 C 13.425781 -7.554688 14.882812 -8.675781 15.90625 -10.25 Z M 18 -8.125 "/></g></g></g><g fill="rgb(0%, 0%, 0%)" fill-opacity="1"><g transform="translate(162.220045, 133.042103)"><g><path d="M 20.8125 -2.640625 L 17.84375 -2.25 L 16.609375 -12 L 4.953125 -10.53125 L 6.1875 -0.78125 L 3.1875 -0.40625 L 0.375 -22.640625 L 3.375 -23.015625 L 4.59375 -13.390625 L 16.25 -14.859375 L 15.03125 -24.484375 L 18 -24.875 Z M 20.8125 -2.640625 "/></g></g></g><g fill="rgb(0%, 0%, 0%)" fill-opacity="1"><g transform="translate(186.620909, 130.577995)"><g><path d="M 7.015625 -22.171875 L 6.234375 0.21875 L 3.21875 0.109375 L 4 -22.28125 Z M 6.5 -23.703125 L 4.640625 -23.78125 L 7.34375 -27.84375 L 10.578125 -27.734375 Z M 6.5 -23.703125 "/></g></g></g><g fill="rgb(0%, 0%, 0%)" fill-opacity="1"><g transform="translate(196.453534, 130.251985)"><g><path d="M 26.796875 -17.375 L 22.125 5.3125 L 22.03125 5.296875 L 9.296875 -14.390625 L 6.140625 1.265625 L 3.15625 0.640625 L 7.8125 -21.984375 L 7.96875 -21.9375 L 20.65625 -2.09375 L 23.859375 -17.96875 Z M 26.796875 -17.375 "/></g></g></g><g fill="rgb(0%, 0%, 0%)" fill-opacity="1"><g transform="translate(221.753225, 135.545143)"><g><path d="M 19.03125 8.84375 L 16.3125 7.578125 L 20.453125 -1.328125 L 9.796875 -6.28125 L 5.65625 2.625 L 2.921875 1.359375 L 12.375 -18.953125 L 15.109375 -17.6875 L 11.015625 -8.890625 L 21.671875 -3.9375 L 25.765625 -12.734375 L 28.484375 -11.46875 Z M 19.03125 8.84375 "/></g></g></g><g fill="rgb(0%, 0%, 0%)" fill-opacity="1"><g transform="translate(252.451569, 151.707608)"><g><path d="M 15.21875 14.453125 L 13.046875 12.375 L 19.8125 5.25 L 11.28125 -2.828125 L 4.515625 4.296875 L 2.328125 2.21875 L 17.75 -14.03125 L 19.9375 -11.953125 L 13.265625 -4.921875 L 21.796875 3.15625 L 28.46875 -3.875 L 30.640625 -1.796875 Z M 15.21875 14.453125 "/></g></g></g><g fill="rgb(0%, 0%, 0%)" fill-opacity="1"><g transform="translate(269.808057, 169.034589)"><g><path d="M 21.609375 -8.625 L 3.78125 4.953125 L 1.953125 2.5625 L 19.78125 -11.015625 Z M 21.609375 -8.625 "/></g></g></g><g fill="rgb(0%, 0%, 0%)" fill-opacity="1"><g transform="translate(276.123687, 176.742269)"><g><path d="M 28.234375 4.65625 L 25.71875 6.046875 L 20.09375 -4.046875 L 14.125 -0.71875 L 19.140625 8.28125 L 16.640625 9.671875 L 11.625 0.671875 L 5.578125 4.046875 L 11.40625 14.53125 L 8.859375 15.9375 L 1.5625 2.8125 L 21.140625 -8.078125 Z M 1.421875 9.0625 C 1.816406 8.84375 2.234375 8.8125 2.671875 8.96875 C 3.117188 9.125 3.453125 9.398438 3.671875 9.796875 C 3.890625 10.191406 3.945312 10.613281 3.84375 11.0625 C 3.738281 11.519531 3.488281 11.859375 3.09375 12.078125 C 2.695312 12.304688 2.28125 12.34375 1.84375 12.1875 C 1.40625 12.039062 1.078125 11.769531 0.859375 11.375 C 0.640625 10.976562 0.578125 10.550781 0.671875 10.09375 C 0.773438 9.632812 1.023438 9.289062 1.421875 9.0625 Z M 27.65625 -0.5 L 28.75 -4.015625 L 25.25 -4.828125 L 23.9375 -7.1875 L 31.046875 -5.28125 L 31.0625 -5.25 L 28.96875 1.859375 Z M 27.65625 -0.5 "/></g></g></g><g fill="rgb(0%, 0%, 0%)" fill-opacity="1"><g transform="translate(286.113112, 194.457005)"><g><path d="M 9.359375 3.28125 C 8.421875 3.570312 7.644531 4.0625 7.03125 4.75 C 6.414062 5.445312 6.007812 6.253906 5.8125 7.171875 C 5.613281 8.097656 5.664062 9.03125 5.96875 9.96875 C 6.28125 10.957031 6.773438 11.78125 7.453125 12.4375 C 8.140625 13.101562 8.941406 13.539062 9.859375 13.75 C 10.773438 13.957031 11.703125 13.914062 12.640625 13.625 L 26.4375 9.25 L 27.328125 12.0625 L 13.453125 16.453125 C 11.929688 16.941406 10.472656 17.015625 9.078125 16.671875 C 7.679688 16.335938 6.46875 15.660156 5.4375 14.640625 C 4.40625 13.617188 3.65625 12.359375 3.1875 10.859375 C 2.71875 9.378906 2.609375 7.925781 2.859375 6.5 C 3.109375 5.082031 3.707031 3.835938 4.65625 2.765625 C 5.613281 1.691406 6.851562 0.910156 8.375 0.421875 L 22.25 -3.96875 L 23.15625 -1.09375 Z M 9.359375 3.28125 "/></g></g></g><g fill="rgb(0%, 0%, 0%)" fill-opacity="1"><g transform="translate(139.143408, 202.874987)"><g><path d="M 21.03125 4.171875 C 19.90625 4.171875 18.613281 3.945312 17.15625 3.5 C 15.695312 3.050781 13.847656 2.394531 11.609375 1.53125 C 11.390625 1.4375 10.59375 1.132812 9.21875 0.625 C 7.007812 1.9375 5.101562 2.59375 3.5 2.59375 C 2.382812 2.59375 1.472656 2.316406 0.765625 1.765625 C 0.0664062 1.222656 -0.28125 0.519531 -0.28125 -0.34375 C -0.28125 -2.03125 1.0625 -2.875 3.75 -2.875 C 5.0625 -2.875 6.800781 -2.664062 8.96875 -2.25 C 10.988281 -3.976562 12.984375 -6.21875 14.953125 -8.96875 C 16.921875 -11.726562 18.535156 -14.617188 19.796875 -17.640625 C 21.066406 -20.660156 21.703125 -23.4375 21.703125 -25.96875 C 21.703125 -28.144531 21.226562 -29.789062 20.28125 -30.90625 C 19.332031 -32.03125 18.078125 -32.59375 16.515625 -32.59375 C 15.140625 -32.59375 13.960938 -32.175781 12.984375 -31.34375 C 12.003906 -30.507812 11.273438 -29.4375 10.796875 -28.125 C 10.316406 -26.8125 10.078125 -25.453125 10.078125 -24.046875 C 10.078125 -22.671875 10.378906 -21.28125 10.984375 -19.875 L 10.078125 -19.96875 C 9.023438 -20.0625 8.144531 -20.472656 7.4375 -21.203125 C 6.738281 -21.941406 6.390625 -23.066406 6.390625 -24.578125 C 6.390625 -26.304688 6.84375 -27.9375 7.75 -29.46875 C 8.664062 -31.007812 9.9375 -32.242188 11.5625 -33.171875 C 13.195312 -34.097656 15.023438 -34.5625 17.046875 -34.5625 C 19.828125 -34.5625 21.976562 -33.679688 23.5 -31.921875 C 25.019531 -30.160156 25.78125 -27.890625 25.78125 -25.109375 C 25.78125 -22.578125 25.144531 -19.847656 23.875 -16.921875 C 22.613281 -13.992188 20.941406 -11.1875 18.859375 -8.5 C 16.785156 -5.8125 14.5625 -3.503906 12.1875 -1.578125 C 16.957031 -0.523438 20.253906 0 22.078125 0 C 22.847656 0 23.507812 -0.101562 24.0625 -0.3125 C 24.625 -0.519531 25.453125 -0.910156 26.546875 -1.484375 C 26.035156 0.492188 25.335938 1.929688 24.453125 2.828125 C 23.578125 3.722656 22.4375 4.171875 21.03125 4.171875 Z M 3.40625 0.625 C 4.175781 0.625 5.15625 0.285156 6.34375 -0.390625 C 5.15625 -0.765625 4.144531 -0.953125 3.3125 -0.953125 C 2.800781 -0.953125 2.429688 -0.875 2.203125 -0.71875 C 1.984375 -0.5625 1.875 -0.382812 1.875 -0.1875 C 1.90625 0.03125 2.070312 0.21875 2.375 0.375 C 2.675781 0.539062 3.019531 0.625 3.40625 0.625 Z M 3.40625 0.625 "/></g></g></g><g fill="rgb(0%, 0%, 0%)" fill-opacity="1"><g transform="translate(170.295359, 202.874987)"><g><path d="M 16.171875 0.953125 C 14.960938 0.953125 14.019531 0.648438 13.34375 0.046875 C 12.675781 -0.554688 12.34375 -1.359375 12.34375 -2.359375 C 12.34375 -2.765625 12.410156 -3.238281 12.546875 -3.78125 C 12.691406 -4.332031 12.847656 -4.878906 13.015625 -5.421875 C 13.460938 -6.890625 13.6875 -7.976562 13.6875 -8.6875 C 13.6875 -9.320312 13.523438 -9.789062 13.203125 -10.09375 C 12.878906 -10.40625 12.476562 -10.5625 12 -10.5625 C 10.300781 -10.5625 8.585938 -9.492188 6.859375 -7.359375 C 5.128906 -5.234375 3.273438 -2.539062 1.296875 0.71875 C -0.078125 0.71875 -1.117188 0.253906 -1.828125 -0.671875 L -1.390625 -1.875 C 0.492188 -6.445312 1.4375 -9.835938 1.4375 -12.046875 C 1.695312 -12.335938 2.066406 -12.601562 2.546875 -12.84375 C 3.023438 -13.082031 3.488281 -13.203125 3.9375 -13.203125 C 4.476562 -13.203125 4.890625 -13.070312 5.171875 -12.8125 C 5.460938 -12.5625 5.609375 -12.210938 5.609375 -11.765625 C 5.609375 -10.898438 5.335938 -9.472656 4.796875 -7.484375 C 6.234375 -9.410156 7.726562 -10.976562 9.28125 -12.1875 C 10.832031 -13.40625 12.363281 -14.015625 13.875 -14.015625 C 15.15625 -14.015625 16.144531 -13.570312 16.84375 -12.6875 C 17.550781 -11.8125 17.90625 -10.765625 17.90625 -9.546875 C 17.90625 -8.847656 17.816406 -8.175781 17.640625 -7.53125 C 17.460938 -6.894531 17.195312 -6.175781 16.84375 -5.375 C 16.300781 -4.03125 16.03125 -3.023438 16.03125 -2.359375 C 16.03125 -1.867188 16.140625 -1.507812 16.359375 -1.28125 C 16.585938 -1.0625 16.863281 -0.953125 17.1875 -0.953125 C 18.238281 -0.953125 19.378906 -1.679688 20.609375 -3.140625 C 21.847656 -4.597656 22.960938 -6.316406 23.953125 -8.296875 L 24.765625 -7.625 C 23.617188 -4.96875 22.347656 -2.875 20.953125 -1.34375 C 19.554688 0.1875 17.960938 0.953125 16.171875 0.953125 Z M 16.171875 0.953125 "/></g></g></g><g fill="rgb(0%, 0%, 0%)" fill-opacity="1"><g transform="translate(195.399315, 202.874987)"><g><path d="M 3.3125 1.4375 C 2.257812 1.4375 1.316406 1.066406 0.484375 0.328125 C -0.347656 -0.398438 -0.765625 -1.46875 -0.765625 -2.875 C -0.765625 -4.664062 -0.078125 -6.738281 1.296875 -9.09375 C 2.671875 -11.445312 4.414062 -13.453125 6.53125 -15.109375 C 8.644531 -16.773438 10.753906 -17.609375 12.859375 -17.609375 C 14.429688 -17.609375 15.21875 -17.097656 15.21875 -16.078125 C 15.21875 -15.566406 15.023438 -15.195312 14.640625 -14.96875 C 14.378906 -15.320312 13.816406 -15.5 12.953125 -15.5 C 11.328125 -15.5 9.773438 -14.785156 8.296875 -13.359375 C 6.828125 -11.941406 5.632812 -10.269531 4.71875 -8.34375 C 3.8125 -6.425781 3.359375 -4.828125 3.359375 -3.546875 C 3.359375 -2.910156 3.484375 -2.414062 3.734375 -2.0625 C 3.992188 -1.707031 4.378906 -1.53125 4.890625 -1.53125 C 5.785156 -1.53125 6.832031 -2.050781 8.03125 -3.09375 C 9.238281 -4.132812 10.472656 -5.613281 11.734375 -7.53125 C 12.992188 -9.457031 14.125 -11.695312 15.125 -14.25 C 17.613281 -20.65625 19.722656 -25.640625 21.453125 -29.203125 C 23.179688 -32.773438 24.6875 -34.5625 25.96875 -34.5625 C 26.320312 -34.5625 26.632812 -34.425781 26.90625 -34.15625 C 27.175781 -33.882812 27.3125 -33.539062 27.3125 -33.125 C 27.3125 -32.570312 27.0625 -31.734375 26.5625 -30.609375 C 26.070312 -29.492188 25.234375 -27.738281 24.046875 -25.34375 C 21.710938 -20.601562 19.859375 -16.460938 18.484375 -12.921875 C 17.109375 -9.390625 16.421875 -6.1875 16.421875 -3.3125 C 16.421875 -2.539062 16.488281 -2.019531 16.625 -1.75 C 16.769531 -1.476562 17.019531 -1.34375 17.375 -1.34375 C 18.46875 -1.34375 19.71875 -1.984375 21.125 -3.265625 C 22.53125 -4.546875 23.757812 -6.273438 24.8125 -8.453125 L 25.734375 -7.6875 C 24.671875 -5.0625 23.210938 -2.914062 21.359375 -1.25 C 19.503906 0.414062 17.664062 1.25 15.84375 1.25 C 14.59375 1.25 13.695312 0.863281 13.15625 0.09375 C 12.613281 -0.675781 12.34375 -1.679688 12.34375 -2.921875 C 12.34375 -3.660156 12.46875 -4.703125 12.71875 -6.046875 C 11.15625 -3.773438 9.539062 -1.957031 7.875 -0.59375 C 6.207031 0.757812 4.6875 1.4375 3.3125 1.4375 Z M 3.3125 1.4375 "/></g></g></g></svg>