<?xml version="1.0" encoding="utf-8"?>
<!-- Generator: Adobe Illustrator 16.0.0, SVG Export Plug-In . SVG Version: 6.00 Build 0)  -->
<!DOCTYPE svg PUBLIC "-//W3C//DTD SVG 1.1//EN" "http://www.w3.org/Graphics/SVG/1.1/DTD/svg11.dtd">
<svg version="1.1" xmlns="http://www.w3.org/2000/svg" xmlns:xlink="http://www.w3.org/1999/xlink" x="0px" y="0px" width="500px"
	 height="500px" viewBox="0 0 500 500" enable-background="new 0 0 500 500" xml:space="preserve">
<g id="Layer_1">
	<g>
		<g transform="translate(82.271178, 216.106675)">
			<g>
				<path d="M-76.525,114.292c1.699-5.275,4.151-9.294,7.355-12.07c3.212-2.794,6.717-4.447,10.52-4.966
					c3.785-0.512,7.532-0.187,11.233,0.991c4.096,1.328,7.401,3.445,9.901,6.362c2.521,2.918,4.126,6.261,4.809,10.023
					c0.684,3.747,0.419,7.494-0.775,11.234l-4.406,13.685l-18.465-5.927l-1.613,5.06l-5.183-1.677l1.614-5.058l-18.712-6.021
					L-76.525,114.292z M-39.349,125.215c1.009-3.117,1.288-6.113,0.838-8.967c-0.435-2.872-1.599-5.378-3.507-7.511
					c-1.923-2.126-4.5-3.708-7.728-4.748c-3.328-1.07-6.407-1.273-9.247-0.589c-2.856,0.666-5.276,2.01-7.262,4.034
					c-2.001,2.009-3.451,4.398-4.346,7.168l-2.388,7.385l13.281,4.251l1.769-5.491l5.183,1.676l-1.769,5.493l12.971,4.158
					L-39.349,125.215z"/>
			</g>
		</g>
	</g>
	<g>
		<g transform="translate(89.279867, 193.682751)">
			<g>
				<path d="M-50.22,109.342c-3.492-2.112-6.191-4.942-8.1-8.503c-1.923-3.554-2.863-7.354-2.824-11.391
					c0.023-4.049,1.087-7.834,3.196-11.356c2.111-3.475,4.958-6.159,8.534-8.067c3.561-1.925,7.371-2.863,11.42-2.825
					c4.034,0.023,7.797,1.086,11.295,3.196c3.515,2.11,6.237,4.949,8.163,8.502c1.923,3.538,2.854,7.349,2.793,11.421
					c-0.063,4.058-1.149,7.82-3.259,11.296c-2.11,3.523-4.934,6.254-8.472,8.191c-3.537,1.947-7.309,2.904-11.327,2.857
					C-42.832,112.599-46.635,111.499-50.22,109.342z M-46.961,104.097c2.606,1.575,5.399,2.406,8.378,2.483
					c2.979,0.062,5.772-0.605,8.379-2.018c2.623-1.405,4.725-3.413,6.299-6.021c1.567-2.606,2.367-5.377,2.39-8.316
					c0.015-2.932-0.707-5.694-2.172-8.286c-1.474-2.606-3.529-4.702-6.175-6.299c-2.63-1.591-5.446-2.429-8.472-2.514
					c-3.019-0.079-5.834,0.574-8.441,1.955c-2.621,1.388-4.725,3.382-6.298,5.988c-1.568,2.608-2.343,5.399-2.328,8.378
					c0,2.979,0.745,5.772,2.234,8.38C-51.677,100.419-49.605,102.507-46.961,104.097z M-58.101,71.668l-7.138,1.521l2.048,6.889
					l-2.763,4.594l-3.754-14.182l0.03-0.031l14.337-3.413L-58.101,71.668z M-81.003,79.519l9.371,0.496l-1.862,3.104l-10.799,1.894
					L-81.003,79.519z"/>
			</g>
		</g>
	</g>
	<g>
		<g transform="translate(110.36462, 163.175771)">
			<g>
				<path d="M-14.253,46.986c-1.776,0.396-3.522,0.985-5.244,1.769c-1.716,0.792-3.174,1.707-4.375,2.762
					c-1.815,1.599-2.902,3.274-3.258,5.027c-0.35,1.739,0.108,3.321,1.364,4.748c1.227,1.389,2.849,1.979,4.874,1.769
					c2.009-0.225,4.553-0.915,7.634-2.079c2.272-0.908,4.321-1.521,6.145-1.832c1.815-0.31,3.677-0.17,5.585,0.404
					c1.923,0.581,3.755,1.862,5.493,3.849c1.567,1.784,2.544,3.801,2.917,6.051c0.372,2.234,0.094,4.492-0.838,6.765
					c-0.915,2.281-2.474,4.398-4.685,6.362c-2.071,1.799-4.36,3.219-6.858,4.25c-2.507,1.017-4.927,1.645-7.262,1.893l-1.118-5.337
					c1.878-0.125,3.887-0.59,6.021-1.396c2.125-0.822,3.894-1.846,5.307-3.072c1.776-1.567,2.924-3.397,3.445-5.492
					c0.534-2.086,0.007-4.042-1.583-5.865c-1.351-1.528-2.979-2.25-4.904-2.173c-1.925,0.063-4.276,0.59-7.045,1.583
					c-2.481,0.931-4.639,1.606-6.484,2.018c-1.839,0.419-3.724,0.426-5.648,0.03c-1.939-0.411-3.693-1.504-5.245-3.289
					c-2.313-2.623-3.267-5.555-2.855-8.782c0.419-3.227,2.041-6.175,4.872-8.844c3.624-3.166,7.759-5.198,12.414-6.113
					L-14.253,46.986z"/>
			</g>
		</g>
	</g>
	<g>
		<g transform="translate(124.532671, 151.169997)">
			<g>
				<path d="M-12.634,38.096l24.641,37.053l-4.965,3.32l-24.641-37.053L-12.634,38.096z"/>
			</g>
		</g>
	</g>
	<g>
		<g transform="translate(141.960154, 140.335952)">
			<g>
				<path d="M54.638,55.186c-1.057,1.365-2.483,2.793-4.283,4.283c-1.801,1.49-3.926,2.661-6.363,3.506
					c-4.282,1.537-8.402,1.925-12.35,1.18c-3.933-0.76-7.347-2.437-10.24-5.027c-2.895-2.583-5.027-5.811-6.393-9.682
					c-1.467-4.159-1.878-8.201-1.241-12.134c0.62-3.926,2.188-7.386,4.686-10.365c2.482-2.979,5.709-5.167,9.682-6.579
					c2.358-0.823,4.671-1.288,6.952-1.396c2.271-0.125,4.39,0.031,6.361,0.465l-0.373,6.083c-3.996-1.032-7.619-0.978-10.862,0.155
					c-2.714,0.954-4.965,2.56-6.765,4.81c-1.8,2.257-2.964,4.857-3.476,7.79c-0.496,2.939-0.232,5.888,0.807,8.843
					c1.054,3.026,2.646,5.54,4.779,7.541c2.126,1.986,4.601,3.251,7.417,3.786c2.809,0.543,5.75,0.271,8.814-0.807
					c3.761-1.319,6.656-3.546,8.688-6.673L54.638,55.186z"/>
			</g>
		</g>
	</g>
	<g>
		<g transform="translate(162.220045, 133.042103)">
			<g>
				<path d="M80.201,58.886l-5.896,0.776l-2.451-19.364l-23.15,2.917l2.451,19.364l-5.958,0.745L39.61,19.165l5.958-0.745
					l2.42,19.116l23.151-2.917l-2.42-19.117l5.895-0.776L80.201,58.886z"/>
			</g>
		</g>
	</g>
	<g>
		<g transform="translate(186.620909, 130.577995)">
			<g>
				<path d="M76.86,17.666l-1.552,44.469l-5.988-0.217l1.552-44.47L76.86,17.666z M75.836,14.625l-3.693-0.157l5.368-8.067
					l6.424,0.217L75.836,14.625z"/>
			</g>
		</g>
	</g>
	<g>
		<g transform="translate(196.453534, 130.251985)">
			<g>
				<path d="M125.844,26.871l-9.279,45.059l-0.188-0.03l-25.29-39.101l-6.269,31.094l-5.927-1.242l9.247-44.935l0.31,0.093
					l25.198,39.411l6.361-31.528L125.844,26.871z"/>
			</g>
		</g>
	</g>
	<g>
		<g transform="translate(221.753225, 135.545143)">
			<g>
				<path d="M135.368,84.163l-5.4-2.514l8.223-17.688l-21.163-9.836l-8.224,17.688l-5.432-2.513l18.776-40.343l5.429,2.514
					l-8.129,17.471l21.162,9.837l8.132-17.472l5.398,2.513L135.368,84.163z"/>
			</g>
		</g>
	</g>
	<g>
		<g transform="translate(252.451569, 151.707608)">
			<g>
				<path d="M158.066,111.242l-4.315-4.128l13.438-14.15l-16.944-16.044L136.807,91.07l-4.343-4.127l30.629-32.274l4.344,4.127
					l-13.251,13.964l16.943,16.044l13.251-13.965l4.313,4.127L158.066,111.242z"/>
			</g>
		</g>
	</g>
	<g>
		<g transform="translate(269.808057, 169.034589)">
			<g>
				<path d="M187.873,82.492l-35.408,26.967l-3.631-4.748l35.406-26.967L187.873,82.492z"/>
			</g>
		</g>
	</g>
	<g>
		<g transform="translate(276.123687, 176.742269)">
			<g>
				<path d="M207.259,116.469l-4.998,2.763l-11.17-20.046l-11.855,6.608l9.962,17.875l-4.967,2.763l-9.961-17.875l-12.01,6.703
					l11.577,20.822l-5.061,2.793l-14.491-26.067l38.883-21.629L207.259,116.469z M154.007,125.221
					c0.783-0.435,1.614-0.497,2.481-0.187c0.885,0.312,1.552,0.854,1.986,1.645c0.435,0.784,0.543,1.622,0.34,2.514
					c-0.208,0.907-0.705,1.583-1.489,2.019c-0.79,0.449-1.612,0.528-2.48,0.216c-0.87-0.293-1.521-0.828-1.955-1.612
					c-0.437-0.791-0.56-1.638-0.372-2.545C152.717,126.353,153.216,125.671,154.007,125.221z M206.109,106.23l2.173-6.983
					l-6.952-1.614l-2.605-4.686l14.119,3.786l0.031,0.062l-4.158,14.12L206.109,106.23z"/>
			</g>
		</g>
	</g>
	<g>
		<g transform="translate(286.113112, 194.457005)">
			<g>
				<path d="M179.621,131.206c-1.86,0.576-3.405,1.555-4.625,2.918c-1.224,1.381-2.032,2.986-2.42,4.809
					c-0.396,1.839-0.293,3.695,0.312,5.556c0.62,1.962,1.597,3.601,2.947,4.904c1.366,1.315,2.956,2.187,4.779,2.605
					c1.815,0.41,3.66,0.326,5.524-0.246l27.4-8.691l1.769,5.586l-27.557,8.719c-3.025,0.973-5.918,1.118-8.689,0.438
					c-2.776-0.67-5.182-2.012-7.23-4.035c-2.048-2.034-3.538-4.529-4.469-7.509c-0.931-2.941-1.147-5.828-0.652-8.658
					c0.499-2.816,1.686-5.292,3.57-7.42c1.899-2.131,4.359-3.681,7.386-4.653l27.557-8.72l1.801,5.711L179.621,131.206z"/>
			</g>
		</g>
	</g>
	<g>
		<g transform="translate(139.143408, 202.874987)">
			<g>
				<path d="M57.881,141.276c-2.234,0-4.803-0.45-7.697-1.335c-2.901-0.891-6.571-2.194-11.016-3.912
					c-0.435-0.185-2.017-0.79-4.747-1.797c-4.392,2.606-8.178,3.911-11.358,3.911c-2.221,0-4.027-0.553-5.433-1.648
					c-1.387-1.074-2.078-2.472-2.078-4.188c0-3.351,2.669-5.027,8.006-5.027c2.606,0,6.059,0.419,10.364,1.242
					c4.012-3.43,7.976-7.881,11.887-13.345c3.909-5.476,7.114-11.218,9.619-17.222c2.522-5.997,3.787-11.514,3.787-16.54
					c0-4.321-0.947-7.587-2.824-9.807c-1.885-2.234-4.375-3.352-7.479-3.352c-2.73,0-5.074,0.83-7.013,2.483
					c-1.948,1.659-3.397,3.785-4.345,6.392c-0.954,2.607-1.427,5.307-1.427,8.1c0,2.731,0.598,5.494,1.799,8.286l-1.799-0.187
					c-2.095-0.186-3.84-1.001-5.245-2.451c-1.389-1.467-2.08-3.701-2.08-6.703c0-3.429,0.9-6.673,2.7-9.713
					c1.815-3.057,4.345-5.509,7.573-7.354c3.243-1.839,6.873-2.763,10.893-2.763c5.523,0,9.789,1.754,12.815,5.244
					c3.019,3.5,4.531,8.007,4.531,13.531c0,5.028-1.265,10.449-3.787,16.26c-2.505,5.819-5.826,11.391-9.961,16.726
					c-4.12,5.338-8.533,9.925-13.25,13.751c9.472,2.093,16.02,3.132,19.644,3.132c1.529,0,2.839-0.2,3.94-0.619
					c1.117-0.414,2.762-1.187,4.934-2.327c-1.016,3.923-2.405,6.778-4.157,8.564C62.939,140.383,60.674,141.276,57.881,141.276z
					 M22.876,134.232c1.528,0,3.476-0.675,5.833-2.019c-2.358-0.744-4.367-1.117-6.019-1.117c-1.018,0-1.754,0.156-2.204,0.465
					c-0.435,0.312-0.652,0.67-0.652,1.057c0.063,0.433,0.389,0.807,0.994,1.117C21.425,134.061,22.108,134.232,22.876,134.232z"/>
			</g>
		</g>
	</g>
	<g>
		<g transform="translate(170.295359, 202.874987)">
			<g>
				<path d="M78.948,134.884c-2.406,0-4.275-0.604-5.617-1.8c-1.328-1.195-1.987-2.793-1.987-4.779c0-0.806,0.132-1.746,0.403-2.822
					c0.288-1.094,0.598-2.183,0.932-3.26c0.884-2.917,1.335-5.073,1.335-6.486c0-1.257-0.326-2.189-0.963-2.793
					c-0.642-0.62-1.443-0.931-2.388-0.931c-3.375,0-6.782,2.126-10.211,6.361c-3.437,4.223-7.122,9.575-11.048,16.045
					c-2.73,0-4.793-0.926-6.205-2.765l0.867-2.388c3.741-9.076,5.616-15.811,5.616-20.202c0.512-0.573,1.25-1.103,2.205-1.583
					c0.947-0.474,1.87-0.713,2.763-0.713c1.069,0,1.892,0.263,2.451,0.774c0.575,0.498,0.869,1.196,0.869,2.08
					c0,1.724-0.543,4.553-1.614,8.505c2.855-3.826,5.819-6.937,8.907-9.343c3.08-2.42,6.122-3.631,9.125-3.631
					c2.543,0,4.507,0.885,5.895,2.639c1.404,1.736,2.112,3.818,2.112,6.238c0,1.388-0.181,2.722-0.53,4.004
					c-0.355,1.261-0.884,2.69-1.582,4.28c-1.077,2.669-1.612,4.671-1.612,5.989c0,0.977,0.215,1.692,0.651,2.141
					c0.451,0.437,1,0.651,1.644,0.651c2.088,0,4.353-1.443,6.795-4.343c2.46-2.896,4.672-6.309,6.644-10.241l1.612,1.334
					c-2.28,5.275-4.801,9.433-7.57,12.476C85.666,133.362,82.5,134.884,78.948,134.884z"/>
			</g>
		</g>
	</g>
	<g>
		<g transform="translate(195.399315, 202.874987)">
			<g>
				<path d="M78.162,135.845c-2.095,0-3.966-0.737-5.618-2.202c-1.651-1.442-2.48-3.57-2.48-6.363c0-3.552,1.363-7.671,4.095-12.349
					c2.731-4.671,6.192-8.658,10.396-11.948c4.198-3.305,8.387-4.965,12.568-4.965c3.118,0,4.687,1.018,4.687,3.041
					c0,1.016-0.389,1.752-1.148,2.202c-0.519-0.696-1.638-1.054-3.353-1.054c-3.227,0-6.314,1.421-9.247,4.251
					c-2.917,2.815-5.291,6.136-7.105,9.962c-1.801,3.808-2.7,6.981-2.7,9.527c0,1.264,0.248,2.249,0.745,2.946
					c0.513,0.708,1.28,1.057,2.294,1.057c1.778,0,3.857-1.032,6.239-3.104c2.398-2.063,4.849-5.005,7.354-8.812
					c2.499-3.827,4.748-8.271,6.735-13.346c4.941-12.724,9.13-22.623,12.568-29.699c3.428-7.09,6.423-10.644,8.967-10.644
					c0.697,0,1.32,0.271,1.861,0.808c0.537,0.541,0.808,1.226,0.808,2.049c0,1.1-0.497,2.761-1.49,4.995
					c-0.977,2.22-2.638,5.702-4.996,10.458c-4.639,9.418-8.316,17.643-11.048,24.671c-2.729,7.012-4.096,13.374-4.096,19.086
					c0,1.536,0.132,2.565,0.403,3.101c0.287,0.544,0.783,0.809,1.49,0.809c2.172,0,4.655-1.273,7.448-3.816
					c2.793-2.546,5.227-5.977,7.322-10.305l1.832,1.521c-2.111,5.213-5.013,9.48-8.689,12.786
					c-3.686,3.306-7.339,4.965-10.955,4.965c-2.482,0-4.266-0.77-5.338-2.297c-1.077-1.528-1.613-3.523-1.613-5.991
					c0-1.464,0.249-3.537,0.744-6.204c-3.102,4.515-6.314,8.122-9.618,10.831C83.91,134.494,80.893,135.845,78.162,135.845z"/>
			</g>
		</g>
	</g>
</g>
<g id="Layer_2">
</g>
</svg>
